Coordinates
version=1
nRows=32
nColumns=12
inDegrees=yes

Units are S.I. units (second, meters, Newtons, ...)
Angles are in degrees

endheader
time	SC_y	SC_z	SC_x	AC_y	AC_z	AC_x	GH_y	GH_z	GH_yy	EL_x	PS_y
       0.0               -15.4          12.04          68.94          65.38       -0.06773          13.93         -53.48         -7.111          111.4          88.07          72.53
   0.01919              -15.41          12.05          68.93          65.38        -0.0669          13.93         -53.49         -7.109          111.4          88.06          72.52
   0.03838              -15.41          12.05          68.92          65.37       -0.06601          13.93         -53.51         -7.107          111.4          88.05          72.52
   0.05757              -15.42          12.06          68.92          65.37       -0.06506          13.93         -53.52         -7.105          111.4          88.03          72.52
   0.07676              -15.42          12.06          68.91          65.36       -0.06405          13.92         -53.54         -7.103          111.4          88.02          72.51
   0.09595              -15.43          12.07           68.9          65.36       -0.06298          13.92         -53.55         -7.101          111.3           88.0          72.51
    0.1151              -15.44          12.07          68.89          65.35       -0.06183          13.92         -53.57         -7.098          111.3          87.99           72.5
    0.1343              -15.44          12.08          68.88          65.34       -0.06061          13.92         -53.58         -7.095          111.3          87.97           72.5
    0.1535              -15.45          12.08          68.87          65.34       -0.05929          13.91          -53.6         -7.092          111.3          87.95          72.49
    0.1727              -15.46          12.09          68.86          65.33       -0.05789          13.91         -53.62         -7.089          111.3          87.93          72.49
    0.1919              -15.46           12.1          68.85          65.32       -0.05637          13.91         -53.65         -7.086          111.3          87.91          72.48
    0.2111              -15.47          12.11          68.84          65.31       -0.05474           13.9         -53.67         -7.082          111.3          87.88          72.48
    0.2303              -15.48          12.11          68.83           65.3       -0.05299           13.9         -53.69         -7.079          111.3          87.86          72.47
    0.2495              -15.49          12.12          68.81          65.29       -0.05109          13.89         -53.72         -7.074          111.3          87.83          72.46
    0.2687               -15.5          12.13           68.8          65.28       -0.04904          13.89         -53.75          -7.07          111.3           87.8          72.46
    0.2879              -15.52          12.14          68.78          65.27       -0.04682          13.88         -53.78         -7.065          111.3          87.77          72.45
    0.3071              -15.53          12.15          68.76          65.25        -0.0444          13.88         -53.82         -7.059          111.3          87.74          72.44
    0.3262              -15.54          12.17          68.74          65.24       -0.04177          13.87         -53.85         -7.054          111.2           87.7          72.43
    0.3454              -15.56          12.18          68.72          65.22       -0.03889          13.86          -53.9         -7.047          111.2          87.66          72.42
    0.3646              -15.57           12.2          68.69           65.2       -0.03574          13.86         -53.94          -7.04          111.2          87.61          72.41
    0.3838              -15.59          12.21          68.67          65.18       -0.03228          13.85         -53.99         -7.033          111.2          87.56          72.39
     0.403              -15.61          12.23          68.64          65.16       -0.02848          13.84         -54.05         -7.024          111.2          87.51          72.38
    0.4222              -15.64          12.25          68.61          65.14       -0.02427          13.83         -54.11         -7.015          111.2          87.45          72.36
    0.4414              -15.66          12.27          68.57          65.11       -0.01962          13.82         -54.17         -7.005          111.1          87.38          72.35
    0.4606              -15.69           12.3          68.53          65.08       -0.01444          13.81         -54.25         -6.993          111.1          87.31          72.33
    0.4798              -15.72          12.33          68.49          65.05       -0.00866          13.79         -54.33          -6.98          111.1          87.22           72.3
     0.499              -15.75          12.36          68.44          65.01      -0.002188          13.78         -54.42         -6.966          111.0          87.13          72.28
    0.5182              -15.79          12.39          68.38          64.97       0.005092          13.76         -54.53          -6.95          111.0          87.03          72.25
    0.5373              -15.84          12.43          68.32          64.92        0.01332          13.74         -54.64         -6.932          111.0          86.91          72.22
    0.5565              -15.89          12.47          68.25          64.87        0.02266          13.72         -54.78         -6.911          110.9          86.78          72.19
    0.5757              -15.94          12.53          68.17          64.81        0.03332          13.69         -54.93         -6.887          110.9          86.62          72.15
    0.5949              -16.01          12.58          68.08          64.74        0.04556          13.67         -55.11          -6.86          110.8          86.45           72.1
